<svg width="13" height="16" viewBox="0 0 13 16" fill="none" xmlns="http://www.w3.org/2000/svg">
<path d="M12.125 6.75C12.125 11.125 6.5 14.875 6.5 14.875C6.5 14.875 0.875 11.125 0.875 6.75C0.875 5.25816 1.46763 3.82742 2.52252 2.77252C3.57742 1.71763 5.00816 1.125 6.5 1.125C7.99184 1.125 9.42258 1.71763 10.4775 2.77252C11.5324 3.82742 12.125 5.25816 12.125 6.75Z" stroke="#FCD144" stroke-linecap="round" stroke-linejoin="round"/>
<path d="M6.5 8.625C7.53553 8.625 8.375 7.78553 8.375 6.75C8.375 5.71447 7.53553 4.875 6.5 4.875C5.46447 4.875 4.625 5.71447 4.625 6.75C4.625 7.78553 5.46447 8.625 6.5 8.625Z" stroke="#FCD144" stroke-linecap="round" stroke-linejoin="round"/>
</svg>
